PathFileType  4	(X/Y/Z) C:\Users\antoi\Documents\MyRepositories\mobilecap\ResultsAnalysis
DataRate	CameraRate	NumFrames	NumMarkers	Units	OrigDataRate	OrigDataStartFrame	OrigNumFrames
100.0	100.0	7	51	mm	100.0	94	150
Frame#	Time	r_knee			r_shank_antsup			r_ankle			r_calc			r_5meta			r_toe			L_knee			L_shank_antsup			L_ankle			L_calc			L_5meta			L_toe			r_sh2			r_sh3			r_sh4			L_sh2			L_sh3			r_thigh1			r_thigh2			r_thigh3			r_thigh4			r_thigh5			L_thigh1			L_thigh2			L_thigh3			L_thigh4			r.ASIS			r.PSIS			L.ASIS			L.PSIS			C7			R_Shoulder			L_Shoulder			R_Sternum			L_Sternum			R_humerus			R_elbow_med			R_elbow_lat			R_forearm			R_wrist_radius			R_wrist_ulna			L_humerus			L_elbow_med			L_elbow_lat			L_forearm			L_wrist_radius			L_wrist_ulna			R_HJC			L_HJC			R_HJC_reg			L_HJC_reg			
		X1	Y1	Z1	X2	Y2	Z2	X3	Y3	Z3	X4	Y4	Z4	X5	Y5	Z5	X6	Y6	Z6	X7	Y7	Z7	X8	Y8	Z8	X9	Y9	Z9	X10	Y10	Z10	X11	Y11	Z11	X12	Y12	Z12	X13	Y13	Z13	X14	Y14	Z14	X15	Y15	Z15	X16	Y16	Z16	X17	Y17	Z17	X18	Y18	Z18	X19	Y19	Z19	X20	Y20	Z20	X21	Y21	Z21	X22	Y22	Z22	X23	Y23	Z23	X24	Y24	Z24	X25	Y25	Z25	X26	Y26	Z26	X27	Y27	Z27	X28	Y28	Z28	X29	Y29	Z29	X30	Y30	Z30	X31	Y31	Z31	X32	Y32	Z32	X33	Y33	Z33	X34	Y34	Z34	X35	Y35	Z35	X36	Y36	Z36	X37	Y37	Z37	X38	Y38	Z38	X39	Y39	Z39	X40	Y40	Z40	X41	Y41	Z41	X42	Y42	Z42	X43	Y43	Z43	X44	Y44	Z44	X45	Y45	Z45	X46	Y46	Z46	X47	Y47	Z47	X48	Y48	Z48	X49	Y49	Z49	X50	Y50	Z50	X51	Y51	Z51	

94	0.93000000	906.53604	469.80335	-89.66641	866.00619	415.57151	-65.12008	623.59970	233.85999	-120.83097	561.44213	257.14972	-174.76379	644.48085	122.66486	-84.71188	699.65541	102.81240	-128.10131	848.13512	465.65212	-412.25064	874.89436	402.60087	-416.44615	840.98931	91.20752	-403.47589	767.05149	59.68328	-361.41896	933.28647	40.70034	-423.52132	981.43080	65.00549	-366.55748	778.07227	343.06238	-68.48932	821.98337	469.38631	-93.93144	727.91418	399.86474	-102.80999	785.01169	409.85549	-432.79853	788.84510	288.04728	-438.72908	907.16504	783.84690	-121.53646	944.57829	678.56775	-97.78014	896.45715	647.12572	-61.08965	807.77596	761.00946	-72.39654	838.02735	647.86084	-70.48946	906.47751	754.16839	-428.41688	912.48934	613.73505	-422.04106	793.32178	746.72052	-450.91975	806.99372	603.80832	-437.80575	876.41244	920.52032	-133.37717	703.74447	928.28240	-224.76149	906.48299	914.28934	-389.34105	711.15465	926.27851	-331.93702	791.92022	1390.91657	-358.15111	846.46421	1372.11424	-194.28509	844.12651	1286.46293	-499.34355	897.13748	1302.10747	-317.47155	896.10886	1290.28829	-359.68695	844.38142	1157.24702	-62.15504	780.94604	1051.44920	-78.24966	818.37395	1081.16009	-22.79517	879.26638	972.60204	-12.32011	910.44021	859.90846	-3.12792	880.06461	854.03992	28.94870	880.17784	1153.20318	-521.69192	831.04983	942.71375	-469.23164	853.41917	947.62667	-527.33253	915.95642	858.53967	-531.75806	947.15902	737.82911	-510.88117	914.03514	724.22457	-524.18495	817.98535	841.67947	-166.04313	842.02520	840.70260	-364.89029	826.30516	833.83155	-171.69653	838.03864	830.65921	-341.40304	
95	0.94000000	924.44295	472.95146	-90.83479	885.02007	417.66115	-66.29054	649.16586	227.51890	-122.36633	585.88513	247.64815	-176.44221	674.80565	117.63118	-85.51619	730.80808	100.01941	-128.78079	851.78628	465.81347	-412.69767	877.66974	402.61172	-416.95632	841.27786	91.49585	-403.49664	767.21928	59.90965	-361.41231	933.28979	40.58997	-423.58611	981.58997	64.70784	-366.62169	799.33961	342.21298	-69.49208	839.26625	470.10012	-95.20278	747.78301	397.10550	-104.50653	787.74919	410.53796	-432.95116	790.43957	288.79596	-438.84159	918.42294	786.72665	-122.80604	958.11211	682.40393	-98.92789	910.99797	650.16262	-61.60458	819.83828	762.10226	-72.79344	852.55703	649.64917	-70.52591	914.52881	753.57035	-429.58926	918.51404	613.11830	-422.73926	801.16604	747.58565	-452.28812	812.74455	604.60518	-438.43054	886.36732	921.59621	-135.18372	713.21916	929.02170	-225.61143	915.63816	914.68194	-391.04742	720.42552	927.17881	-332.74586	801.80107	1391.88104	-358.32186	853.97074	1372.54719	-193.87285	856.26401	1288.81688	-499.41671	906.87417	1303.25457	-316.84370	906.30226	1291.60967	-359.16741	849.53923	1157.83376	-61.57007	787.15410	1051.70267	-79.17977	822.98679	1081.62657	-22.80272	884.50835	973.54919	-11.30517	916.54692	861.07860	-1.95978	885.63511	854.87382	29.42916	892.41338	1155.70131	-522.51148	842.05375	944.97404	-471.83707	865.41507	950.05553	-529.50921	929.17620	861.46829	-532.41555	961.52090	741.17329	-510.73015	928.82580	727.08888	-524.61731	827.81066	842.64838	-167.25692	851.06297	841.27095	-366.18802	836.24502	834.31584	-173.49122	847.65484	831.39917	-343.11574	
96	0.95000000	941.80990	476.00231	-91.92005	903.67624	419.49199	-67.34327	675.20039	220.46162	-123.92020	610.96973	237.23301	-178.26252	705.73583	112.21174	-86.20377	762.54137	96.98888	-129.24610	855.53224	465.89883	-413.16973	880.60979	402.55342	-417.48198	841.56249	91.76916	-403.49919	767.38796	60.15063	-361.39957	933.29582	40.48070	-423.64360	981.68898	64.38433	-366.67715	820.53925	340.93089	-70.42332	856.02278	470.35931	-96.34136	767.51375	393.71979	-106.13410	790.67540	411.20070	-433.11497	792.16424	289.52791	-438.95041	929.43974	789.38070	-123.96610	971.22010	685.98477	-99.99208	925.07079	653.04130	-62.08599	831.63232	763.11217	-73.19547	866.67880	651.37823	-70.56369	922.32445	752.92419	-430.90241	924.50396	612.47756	-423.57937	808.77522	748.28747	-453.55651	818.50758	605.26064	-438.93469	896.38866	922.38366	-137.00676	722.65519	929.62636	-226.36992	924.69408	914.79879	-392.82297	729.64089	927.79751	-333.48109	811.65944	1392.69621	-358.29762	861.52971	1372.73637	-193.27666	868.31936	1291.00574	-499.30614	916.55916	1304.27276	-316.09363	916.40784	1292.81014	-358.52009	854.85139	1158.08562	-60.98427	793.50524	1051.62977	-80.15920	827.71481	1081.72558	-22.87911	889.78181	974.13717	-10.20378	922.72747	861.91766	-0.64098	891.11141	855.32265	29.92095	904.72588	1158.02539	-523.09452	853.08072	947.03465	-474.33535	877.32266	952.35364	-531.62142	942.36425	864.26892	-532.95206	975.91552	744.39167	-510.51187	943.62197	729.80596	-524.90845	837.64124	843.37667	-168.45376	859.97841	841.56755	-367.48156	846.04848	834.72131	-175.20466	857.10756	831.82739	-344.76684	
97	0.96000000	958.61528	478.91980	-92.93694	921.95901	421.08444	-68.29613	701.69073	212.82054	-125.43939	636.76128	226.06850	-180.19688	737.20007	106.52373	-86.73924	794.79274	93.82530	-129.43361	859.32783	465.89931	-413.68668	883.69749	402.42483	-418.03664	841.84284	92.02528	-403.49936	767.55150	60.40994	-361.39198	933.31386	40.37864	-423.69470	981.75244	64.04892	-366.72941	841.68951	339.29368	-71.32476	872.29582	470.18279	-97.38689	787.10045	389.81032	-107.69394	793.79665	411.84986	-433.32717	794.04132	290.24027	-439.08376	940.19761	791.78127	-125.03862	983.92197	689.28345	-101.00983	938.68838	655.72492	-62.56136	843.16292	764.01815	-73.60950	880.37726	652.99819	-70.62940	929.87019	752.25398	-432.29856	930.48204	611.83821	-424.54880	816.17068	748.86165	-454.68425	824.26156	605.81319	-439.36141	906.38667	922.88775	-138.78623	732.06682	930.10100	-227.06354	933.66309	914.64105	-394.60859	738.82699	928.16965	-334.17198	821.50561	1393.37513	-358.06647	869.17889	1372.67201	-192.49743	880.27822	1293.02775	-499.02701	926.19100	1305.15191	-315.22068	926.44421	1293.88822	-357.74700	860.34116	1157.97925	-60.41095	800.01227	1051.22131	-81.15960	832.59245	1081.45949	-23.00505	895.11942	974.34891	-9.04108	928.99905	862.40513	0.80106	896.54655	855.36171	30.39758	917.09356	1160.17390	-523.41279	864.17989	948.87867	-476.73029	889.24786	954.48916	-533.63238	955.54308	866.92926	-533.37201	990.34038	747.47305	-510.22885	958.40288	732.38581	-525.07763	847.41498	843.86968	-169.61303	868.79328	841.60312	-368.73999	855.68752	835.01385	-176.80157	866.38776	831.95802	-346.32897	
98	0.97000000	974.84958	481.66527	-93.90676	939.84213	422.46256	-69.17718	728.63944	204.73381	-126.86316	663.30344	214.32405	-182.18552	769.14282	100.69318	-87.08625	827.49210	90.63796	-129.30861	863.13984	465.80946	-414.25548	886.90504	402.22973	-418.62160	842.12331	92.26724	-403.51002	767.70660	60.68761	-361.39628	933.34948	40.28790	-423.74060	981.81663	63.72096	-366.78162	862.79498	337.38663	-72.22860	888.12477	469.58909	-98.39908	806.55276	385.48310	-109.18515	797.10493	412.49093	-433.61499	796.07739	290.93298	-439.26709	950.67621	793.89511	-126.05601	996.25584	692.27992	-102.02210	951.87817	658.18124	-63.05504	854.44181	764.79544	-74.03435	893.65814	654.46949	-70.73540	937.20782	751.56828	-433.71604	936.47245	611.21063	-425.62182	823.40467	749.34807	-455.65333	829.98352	606.30555	-439.75518	916.26677	923.12405	-140.47391	741.46414	930.44880	-227.70937	942.56324	914.25851	-396.34497	748.00106	928.34346	-334.82557	831.34200	1393.93160	-357.62164	876.94335	1372.35140	-191.55411	892.12454	1294.88893	-498.59267	935.77985	1305.87638	-314.22709	936.43133	1294.83330	-356.85313	866.03160	1157.51151	-59.86853	806.68280	1050.48585	-82.15327	837.65699	1080.84735	-23.16435	900.56389	974.19083	-7.85045	935.36201	862.53076	2.33378	901.99998	854.98547	30.82598	929.48173	1162.15879	-523.45542	875.37627	950.51799	-479.02982	901.28638	956.44720	-535.51095	968.72624	869.44594	-533.68842	1004.77149	750.41437	-509.87411	973.15214	734.84543	-525.14518	857.08157	844.13929	-170.72047	877.53415	841.42479	-369.94043	865.14927	835.17284	-178.26456	875.49479	831.84153	-347.78553	
99	0.98000000	990.51165	484.20181	-94.85507	957.28934	423.64908	-70.01942	756.05755	196.33876	-128.13175	690.61567	202.16438	-184.14448	801.52293	94.85632	-87.20948	860.56293	87.54345	-128.86463	866.95615	465.63479	-414.86724	890.19795	401.97660	-419.22613	842.41540	92.50287	-403.53761	767.85361	60.98078	-361.41349	933.40279	40.20879	-423.78412	981.91642	63.41877	-366.83509	883.83807	335.29063	-73.14604	903.54299	468.58567	-99.45607	825.89383	380.83608	-110.60661	800.57451	413.12730	-433.98738	798.25907	291.60912	-439.51314	960.86412	795.69294	-127.05391	1008.26623	694.96069	-103.06395	964.67178	660.38392	-63.58742	865.48459	765.42061	-74.46419	906.53708	655.76302	-70.88394	944.40955	750.86289	-435.09456	942.49532	610.58916	-426.76310	830.54870	749.77960	-456.46693	835.66625	606.77226	-440.14799	925.95078	923.11817	-142.03412	750.84916	930.66807	-228.31823	951.42519	913.72898	-397.97654	757.17361	928.36519	-335.43702	841.16233	1394.38021	-356.96132	884.83831	1371.78021	-190.47411	903.84035	1296.60285	-498.01139	945.34089	1306.42810	-313.11682	946.39058	1295.63316	-355.84407	871.94422	1156.69754	-59.37283	813.52034	1049.44608	-83.11583	842.94670	1079.91799	-23.34493	906.16388	973.68674	-6.66335	941.80401	862.29583	3.92393	907.52553	854.20277	31.17227	941.84977	1164.00303	-523.22539	886.67057	951.98763	-481.23869	913.50220	958.23728	-537.23501	981.92336	871.82811	-533.90666	1019.17299	753.21934	-509.43641	987.85509	737.20402	-525.13060	866.61011	844.20237	-171.76617	886.23702	841.09767	-371.06656	874.43881	835.19178	-179.59096	884.44830	831.54702	-349.12779	
100	0.99000000	1005.60454	486.49694	-95.80866	974.26131	424.65796	-70.85521	783.94923	187.77010	-129.19647	718.69390	189.74529	-185.97937	834.30271	89.15423	-87.07906	893.92252	84.66142	-128.11526	870.78866	465.39845	-415.49920	893.54293	401.68060	-419.83043	842.73574	92.74333	-403.57933	767.99820	61.28564	-361.43972	933.46976	40.13856	-423.82947	982.07404	63.15376	-366.89001	904.78197	333.07031	-74.06971	918.58300	467.16178	-100.64242	845.14919	375.94879	-111.95962	804.16384	413.76064	-434.43240	800.55698	292.27539	-439.81630	970.77198	797.16017	-128.05974	1019.98822	697.31695	-104.15791	977.09543	662.31128	-64.17466	876.30756	765.87443	-74.89099	919.02904	656.85765	-71.07524	951.56452	750.12520	-436.38018	948.55984	609.95398	-427.93573	837.67987	750.17495	-457.14174	841.33033	607.23076	-440.55069	935.40008	922.90524	-143.43904	760.21481	930.75178	-228.89753	960.29174	913.13081	-399.45570	766.35016	928.27026	-336.00182	850.95580	1394.73392	-356.08820	892.87339	1370.97169	-189.28187	915.41048	1298.18973	-497.28601	954.88931	1306.79042	-311.89404	956.34277	1296.27944	-354.72410	878.09766	1155.56445	-58.93147	820.52815	1048.13237	-84.02983	848.49586	1078.70313	-23.53885	911.96660	972.86915	-5.50230	948.31103	861.71346	5.54218	913.16448	853.03362	31.41322	954.15823	1165.73641	-522.73548	898.04792	953.33386	-483.35228	925.91697	959.89059	-538.78960	995.14124	874.09640	-534.01304	1033.50672	755.89619	-508.90553	1002.49502	739.47842	-525.04881	875.99349	844.08054	-172.74102	894.94653	840.68405	-372.10524	883.58272	835.07104	-180.78534	893.29540	831.14185	-350.35185	
